# xmcd
#
# Track frame offsets:
#	150
#	23202
#	43188
#	66581
#	86319
#	105032
#	133656
#	156884
#	178754
#	200282
#
# Disc length: 2978 seconds
#
# Revision: 2
# Processed by: cddbd v1.5.2PL0 Copyright (c) Steve Scherf et al.
# Submitted via: EasyCDDAExtractor 15.2.1.1
#
DISCID=7f0ba00a
DTITLE=Kris Wiley - Breaking The Rules
DYEAR=1999
DGENRE=Blues
TTITLE0=Countdown To Heartache
TTITLE1=Faith In The Wrong People
TTITLE2=Here We Go
TTITLE3=Ain't Nobody's Business
TTITLE4=Two Long Leg
TTITLE5=Working Late
TTITLE6=Bad Situation
TTITLE7=Can't Stand Losing Me
TTITLE8=Iceman - One For Albert
TTITLE9=Two Timin' Man
EXTD=
EXTT0=
EXTT1=
EXTT2=
EXTT3=
EXTT4=
EXTT5=
EXTT6=
EXTT7=
EXTT8=
EXTT9=
PLAYORDER=
